<svg xmlns="http://www.w3.org/2000/svg" viewBox="0 0 64 64" width="64" height="64">
  <!-- Background circle with gradient -->
  <defs>
    <linearGradient id="bg" x1="0%" y1="0%" x2="100%" y2="100%">
      <stop offset="0%" style="stop-color:#F5F1E8;stop-opacity:1" />
      <stop offset="100%" style="stop-color:#D4AF37;stop-opacity:1" />
    </linearGradient>
    <linearGradient id="runner" x1="0%" y1="0%" x2="100%" y2="100%">
      <stop offset="0%" style="stop-color:#2C2C2C;stop-opacity:1" />
      <stop offset="100%" style="stop-color:#4A4A4A;stop-opacity:1" />
    </linearGradient>
  </defs>
  
  <!-- Background -->
  <circle cx="32" cy="32" r="30" fill="url(#bg)" stroke="#D4AF37" stroke-width="2"/>
  
  <!-- Running figure (simplified) -->
  <g fill="url(#runner)">
    <!-- Head -->
    <circle cx="28" cy="20" r="4"/>
    
    <!-- Body -->
    <rect x="26" y="24" width="4" height="12" rx="2"/>
    
    <!-- Arms -->
    <rect x="22" y="26" width="3" height="8" rx="1.5" transform="rotate(-20 23.5 30)"/>
    <rect x="31" y="26" width="3" height="8" rx="1.5" transform="rotate(30 32.5 30)"/>
    
    <!-- Legs -->
    <rect x="24" y="35" width="3" height="10" rx="1.5" transform="rotate(-15 25.5 40)"/>
    <rect x="29" y="35" width="3" height="10" rx="1.5" transform="rotate(25 30.5 40)"/>
  </g>
  
  <!-- Coffee cup -->
  <g transform="translate(40, 18)">
    <!-- Cup -->
    <rect x="0" y="4" width="12" height="14" rx="2" fill="#8B4513" stroke="#654321" stroke-width="1"/>
    <rect x="1" y="5" width="10" height="12" rx="1" fill="#D2691E"/>
    
    <!-- Handle -->
    <path d="M12 8 Q16 8 16 12 Q16 16 12 16" fill="none" stroke="#8B4513" stroke-width="2"/>
    
    <!-- Steam -->
    <g stroke="#D4AF37" stroke-width="1.5" fill="none" opacity="0.7">
      <path d="M4 2 Q4 0 6 0 Q6 2 4 2"/>
      <path d="M6 1 Q6 -1 8 -1 Q8 1 6 1"/>
      <path d="M8 2 Q8 0 10 0 Q10 2 8 2"/>
    </g>
  </g>
  
  <!-- Small decorative elements -->
  <circle cx="12" cy="50" r="1.5" fill="#D4AF37" opacity="0.6"/>
  <circle cx="52" cy="48" r="1" fill="#D4AF37" opacity="0.4"/>
  <circle cx="16" cy="12" r="1" fill="#D4AF37" opacity="0.5"/>
</svg>
