<svg xmlns="http://www.w3.org/2000/svg" viewBox="0 0 32 32" width="32" height="32">
  <!-- Simple design for better favicon visibility -->
  <defs>
    <linearGradient id="bg" x1="0%" y1="0%" x2="100%" y2="100%">
      <stop offset="0%" style="stop-color:#D4AF37;stop-opacity:1" />
      <stop offset="100%" style="stop-color:#B8941F;stop-opacity:1" />
    </linearGradient>
  </defs>
  
  <!-- Background circle -->
  <circle cx="16" cy="16" r="15" fill="url(#bg)" stroke="#2C2C2C" stroke-width="1"/>
  
  <!-- Simple runner icon -->
  <g fill="#2C2C2C">
    <!-- Head -->
    <circle cx="12" cy="10" r="2"/>
    
    <!-- Body (running pose) -->
    <rect x="11" y="12" width="2" height="6" rx="1"/>
    
    <!-- Arms -->
    <rect x="9" y="13" width="1.5" height="4" rx="0.75" transform="rotate(-30 9.75 15)"/>
    <rect x="13.5" y="13" width="1.5" height="4" rx="0.75" transform="rotate(20 14.25 15)"/>
    
    <!-- Legs -->
    <rect x="10" y="17" width="1.5" height="5" rx="0.75" transform="rotate(-20 10.75 19.5)"/>
    <rect x="12.5" y="17" width="1.5" height="5" rx="0.75" transform="rotate(30 13.25 19.5)"/>
  </g>
  
  <!-- Coffee cup (simplified) -->
  <g transform="translate(18, 8)">
    <!-- Cup -->
    <rect x="0" y="2" width="6" height="7" rx="1" fill="#8B4513"/>
    <rect x="0.5" y="2.5" width="5" height="6" rx="0.5" fill="#D2691E"/>
    
    <!-- Handle -->
    <path d="M6 4 Q8 4 8 6 Q8 8 6 8" fill="none" stroke="#8B4513" stroke-width="1"/>
    
    <!-- Steam -->
    <g stroke="#F5F1E8" stroke-width="0.8" fill="none" opacity="0.8">
      <path d="M2 1 Q2 0 3 0"/>
      <path d="M4 1 Q4 0 5 0"/>
    </g>
  </g>
  
  <!-- Small accent dots -->
  <circle cx="6" cy="26" r="0.8" fill="#F5F1E8" opacity="0.6"/>
  <circle cx="26" cy="24" r="0.6" fill="#F5F1E8" opacity="0.4"/>
</svg>
